<svg
	viewBox="0 0 18 36"
	xmlns="http://www.w3.org/2000/svg"
	fill="currentColor"
	id="icon"
>
	<path
		d="M11.2003 2.63994C11.1522 1.53642 10.2186 0.680859 9.11507 0.728986C8.01155 0.777113 7.15599 1.71071 7.20411 2.81423C7.33401 5.79258 7.2558 8.78717 7.17544 11.8637L7.16965 12.0857C7.08803 15.2154 7.00946 18.4289 7.17524 21.6483C7.2233 22.5818 7.29111 23.4645 7.35679 24.3197C7.4475 25.5007 7.53417 26.6291 7.55921 27.7655C7.4405 27.5837 7.32018 27.3982 7.19806 27.2099C6.33669 25.8822 5.38616 24.417 4.28377 23.1199C3.56845 22.2782 2.30627 22.1758 1.46461 22.8911C0.622947 23.6064 0.520525 24.8686 1.23584 25.7103C2.15471 26.7914 2.9149 27.9617 3.75026 29.2478C4.01495 29.6553 4.28718 30.0744 4.5744 30.5059C4.67934 30.6636 4.73467 30.7486 4.76663 30.7978L4.77139 30.8052C4.78426 30.825 4.80297 30.8538 4.81914 30.878C4.84288 30.9134 4.88191 30.9704 4.93471 31.0369C4.95847 31.0669 4.97875 31.0909 4.99154 31.1059L5.01476 31.1327C5.01994 31.1387 5.02494 31.1444 5.03486 31.1563C5.05797 31.1839 5.1129 31.2508 5.22831 31.3979L5.26245 31.4414L5.26256 31.4415C5.40182 31.6188 5.70473 32.0045 5.99966 32.3934C6.16145 32.6067 6.31194 32.8093 6.4275 32.9721C6.4856 33.0539 6.52728 33.1151 6.55398 33.1562L6.55603 33.1593C6.69375 33.4498 7.01985 34.1357 7.49882 34.6672C7.52636 34.7089 7.56347 34.7645 7.59431 34.8084L7.5981 34.8138C7.64317 34.8782 7.79881 35.1004 8.02921 35.2993C8.13473 35.3904 8.44677 35.6488 8.9311 35.7608C9.20312 35.8237 9.55194 35.8449 9.93149 35.7406C10.3165 35.6348 10.6224 35.43 10.845 35.2036C11.1754 34.8673 11.4312 34.5031 11.6108 34.2365C11.6934 34.1138 11.7572 34.0168 11.8118 33.9336L11.8121 33.9331C11.9015 33.797 11.9664 33.6982 12.0496 33.5853C12.2479 33.3162 12.4593 33.0347 12.6771 32.7449L12.6773 32.7447L12.6773 32.7446C13.1657 32.0945 13.6856 31.4024 14.1585 30.7142C14.7405 29.8673 15.258 28.9713 15.7287 28.1563L15.7549 28.1108C16.2475 27.258 16.691 26.4933 17.1711 25.7997C17.7997 24.8915 17.573 23.6456 16.6647 23.017C15.7565 22.3884 14.5106 22.6151 13.882 23.5233C13.2976 24.3677 12.7772 25.2688 12.302 26.0914L12.2912 26.1102C12.0353 26.5532 11.7917 26.9748 11.5481 27.3773C11.5098 26.1589 11.416 24.92 11.3269 23.7448L11.3269 23.7447C11.2658 22.9383 11.207 22.1619 11.1699 21.4426C11.0133 18.4013 11.0862 15.3381 11.1683 12.19L11.1755 11.9134C11.2549 8.8773 11.3364 5.76009 11.2003 2.63994ZM7.43715 34.5751C7.43683 34.5742 7.44337 34.5831 7.45778 34.6047C7.44468 34.5869 7.43748 34.5761 7.43715 34.5751Z"
	/>
</svg>
