<svg xmlns="http://www.w3.org/2000/svg" xmlns:xlink="http://www.w3.org/1999/xlink" viewBox="0 0 642 187" id="icon">
	<g>
		<path d="M-2.368905712256966 2.73039588004813 L58.882977840252394 -1.131527718788771 L60.46738532743604 58.17685801010322 L2.565484617899898 60.455124471816575" stroke="none" stroke-width="0" fill="rgb(229, 231, 235)" />
		<path d="M3.1548160460834715 -3.921941865210206 C17.772038206549333 15.664091634639682, 33.073901918406875 12.833801195381483, 53.56498566937169 -1.5652067466498831 M-0.9117633533945808 -0.49736573116599647 C16.24716134391261 2.3435282362178027, 32.813557664212446 3.3702333448602015, 58.690791683784326 1.4042026841550008 M59.21186955788146 3.5556555226840576 C62.981030550508194 21.913052929770153, 63.32988568844554 39.40932745468383, 55.98049627444172 58.57928738181574 M55.9122332137072 0.15801242401987992 C50.461426670141684 20.65660629061493, 50.30756958458778 42.13031633565745, 58.19768475564308 56.13772316574719 M54.62495561089719 55.55820259088772 C33.584648729684965 59.94069782126254, 21.15602477616928 60.11086350367791, 1.6203569619226776 59.3887407901733 M55.35352333533514 55.52264927959066 C39.233422206096094 63.32497462080101, 17.71763071597254 64.91151473158753, -1.2429367278394396 56.16706604461755 M-0.10411023089233318 57.275253058014954 C-9.45339899183019 39.678231186391436, -7.6360815444272685 33.365261067733385, -0.7196474927166836 -3.6550907247681597 M-1.75289675869523 55.449998325968316 C-9.439160666532736 42.43193109179313, -12.004697887471275 24.448331786787506, -1.7084516426502212 -0.18056439364536825" stroke="rgb(229, 231, 235)" stroke-width="1" fill="none" />
	</g>
	<g>
		<path d="M64.1383339989108 -0.47441758659084954 L124.73632599115584 -3.1195328405163227 L125.32991612396992 60.08027084246774 L63.41527201734179 56.26441934585755" stroke="none" stroke-width="0" fill="rgb(229, 231, 235)" />
		<path d="M61.751354106767685 1.2353373163759738 C84.99690351935877 -4.540757158753992, 108.27821891436051 -7.6191951834197, 122.42664071154381 -0.10287969255815455 M64.9188334430522 -0.9009104308771008 C76.92509629244243 9.055449799659396, 88.01704566349895 8.263220809809228, 121.71129741224152 1.6171673210364412 M124.23645042372071 -1.2280080371559343 C116.38134458315551 9.829125997168296, 115.6344845371891 26.970444478678505, 120.44063196782679 59.11448382693945 M122.3527451014173 1.2123681755733546 C122.19988998422599 12.76349587908366, 125.06503893222695 24.84430409230179, 120.63204254735884 58.105642977719356 M119.63636252733865 58.376177293627045 C106.40645815566216 69.63558032914605, 88.5684789441217 68.81717258895972, 67.28935085533003 58.716629729470924 M121.91689172449723 58.83790226097528 C107.3550148137088 65.50666154943073, 91.70114219123232 68.1954290094946, 64.19734537259598 58.53220769485694 M61.31930162897493 60.20168781610856 C53.04660646822111 39.827878499419946, 56.373568845321635 21.909431734283302, 63.45293480391403 -0.7992473347421125 M64.22121298291269 57.36769693276241 C57.682406964901304 42.96441399969342, 56.027134791037916 25.78867581707837, 66.43830161098653 -1.7741997866798194" stroke="rgb(229, 231, 235)" stroke-width="1" fill="none" />
	</g>
	<g>
		<path d="M173.84859508243227 4.738279796345658 C178.96019736988887 7.153719984637437, 183.5730059428459 13.43467992364192, 185.52630293622346 18.860142736237883 C187.47959992960102 24.285605548833846, 187.39142291417548 31.69857149626617, 185.56837704269773 37.291056671921446 C183.74533117122 42.88354184757672, 179.8796411161275 49.66049856124697, 174.58802770735699 52.41505379016954 C169.29641429858648 55.16960901909211, 160.33598521030373 54.661933355104956, 153.81869659007475 53.81838804545687 C147.30140796984577 52.974842735808785, 139.32857060695133 51.47522021316591, 135.48429598598315 47.35378193228102 C131.64002136501497 43.23234365139612, 130.71804893204458 35.23919719613796, 130.75304886426568 29.089758360147496 C130.78804879648678 22.94031952415703, 131.65383214402132 14.885054402179094, 135.6942955793097 10.457148916338227 C139.7347590145981 6.029243430497359, 147.084499933808 1.3323636038854794, 154.99582947599603 2.522325445102286 C162.90715901818407 3.7122872863190928, 178.0778633928009 12.606698737046429, 183.16227283243802 17.596919963639067 C188.24668227207513 22.587141190231705, 185.80393087154812 32.51572127309777, 185.50228611381874 32.46365280465811" stroke="none" stroke-width="0" fill="rgb(229, 231, 235)" />
		<path d="M150.2989349597315 4.6161827578337515 C155.89977983795336 3.086872736492844, 163.90245559506596 2.836619369684104, 169.4061963888749 4.948902837801473 C174.90993718268382 7.0611863059188416, 180.33406237272627 12.055516370586597, 183.32137972258508 17.289883566537966 C186.3086970724439 22.524250762489338, 188.41846955986372 31.04289374892117, 187.3301004880278 36.35510601350969 C186.24173141619187 41.667318278098215, 181.8640985337113 45.80633680888974, 176.79116529156954 49.1631571540691 C171.71823204942777 52.519977499248455, 163.55222788009286 56.91116322479216, 156.89250103517713 56.49602808458583 C150.2327741902614 56.0808929443795, 141.26710940183477 50.73568579386033, 136.83280422207525 46.672346312831124 C132.39849904231573 42.60900683180192, 130.89391677615308 37.87065552895338, 130.28666995661993 32.11599119841061 C129.6794231370868 26.36132686786785, 127.84798896532767 17.247005786969943, 133.18932330487632 12.144360329574543 C138.530657644425 7.041714872179143, 156.38805782511886 3.1171114216233073, 162.33467599391184 1.5001184540382155 C168.28129416270482 -0.11687451354687606, 169.4463227888276 2.1293691974002367, 168.86903231763415 2.4424025240639935" stroke="rgb(229, 231, 235)" stroke-width="1" fill="none" />
	</g>
	<g>
		<path d="M202.9208165484672 8.229825108435062 C206.84421881195735 4.169496408380381, 215.01166512842101 -0.3850779463320103, 221.476979416163 -1.0056669359754906 C227.942293703905 -1.6262559256189708, 236.59758152117774 0.9411796461881567, 241.7127022749192 4.50629117057418 C246.82782302866065 8.071402694960202, 251.38334771144534 13.944810656040328, 252.1677039386118 20.385002210340648 C252.95206016577825 26.825193764640968, 249.32136770274465 37.553015252535175, 246.4188396379179 43.14744049637609 C243.51631157309114 48.74186574021701, 240.19102355462715 51.31523812803396, 234.75253554965133 53.95155367338615 C229.3140475446755 56.58786921873834, 219.21204893558394 60.16320000446186, 213.78791160806298 58.965333768489245 C208.36377428054203 57.76746753251663, 205.0253079089794 52.51464619792066, 202.2077115845256 46.764356257550475 C199.3901152600718 41.01406631718029, 194.32865143006714 32.569657787859136, 196.8823336613402 24.463594126268116 C199.43601589261326 16.357530464677097, 212.41229723549867 2.358247376147051, 217.52980497216393 -1.8720257119956507 C222.6473127088292 -6.102298800138352, 227.34692533744266 -1.6168878527281874, 227.58738008133167 -0.9180444025880945" stroke="none" stroke-width="0" fill="rgb(229, 231, 235)" />
		<path d="M220.92719670210366 -2.8061840633496367 C226.78937873641775 -3.3949929692665375, 234.50155539810223 1.672493381871543, 239.37508278893682 5.4346327815791575 C244.24861017977142 9.196772181286772, 248.80118547289266 13.718798134860744, 250.1683610471112 19.76665233489605 C251.53553662132975 25.814506534931358, 250.21674585610026 35.845683537967005, 247.57813623424815 41.721757981791 C244.93952661239604 47.597832425614996, 239.72236825363532 52.62054493830824, 234.33670331599856 55.023098997840016 C228.9510383783618 57.42565305737179, 220.55223360208805 57.745849957940784, 215.26414660842758 56.13708233898165 C209.9760596147671 54.528314720022514, 205.5170501479584 50.58107320326272, 202.60818135403568 45.3704932840852 C199.69931256011296 40.15991336490768, 197.8439020961353 31.123415231923545, 197.81093384489134 24.873602823916524 C197.77796559364737 18.623790415909504, 196.92204772979585 12.010199838522958, 202.41037184657182 7.871618836043087 C207.8986959633478 3.733037833563217, 224.5506899362408 0.3919211080751914, 230.74087854554708 0.042116809037306524 C236.93106715485337 -0.3076874900005784, 240.03411732687056 5.520814233355274, 239.5515035024096 5.772793041815778" stroke="rgb(229, 231, 235)" stroke-width="1" fill="none" />
	</g>
	<g>
		<path d="M261.69472098132377 -2.124133836954398 L314.0636335917108 -0.46944481524309545 L313.51888967459035 55.83063338307398 L258.6720744355074 57.172462979593135" stroke="none" stroke-width="0" fill="rgb(229, 231, 235)" />
		<path d="M261.20388657769064 -0.2165788489163667 C281.64531288831745 5.809753982810486, 303.6066551832984 7.91538405579881, 320.59570408272936 1.7785739584424771 M314.21617255368915 0.8169874788964187 C323.4808379435505 11.738778406145892, 322.71216407442034 28.610428688074112, 313.0347249282954 53.499950626672934 M318.3043353682581 57.92561282412916 C302.7355475005104 53.0643761369537, 287.4722360043759 53.63368246421833, 262.8368166214843 56.23872669737942 M261.1591100120511 56.76486226210044 C251.47361831394818 35.02972244829225, 255.06772402603764 12.956206117292282, 261.79719299145023 1.7152692359039268" stroke="rgb(229, 231, 235)" stroke-width="1" fill="none" />
	</g>
	<g>
		<path d="M368.906895563845 6.15790212773048 C373.8235652749345 9.061360028050961, 377.50600556775476 15.666605080199385, 379.37359543678735 21.175798173950028 C381.24118530581995 26.68499126770067, 382.66248644729325 33.86497706304409, 380.1124347780405 39.21306069023434 C377.56238310878774 44.5611443174246, 369.82461074914863 50.55999603794916, 364.0732854212709 53.26429993709155 C358.32196009339316 55.96860383623394, 350.9618135534863 56.9176438380381, 345.60448281077396 55.43888408508868 C340.2471520680616 53.96012433213926, 335.26261322767834 49.20356432743079, 331.9293009649968 44.39174141939503 C328.59598870231525 39.579918511359274, 324.98127521753264 32.71357136132695, 325.6046092346847 26.567946636874144 C326.22794325183673 20.42232191242134, 331.4693262514598 11.780949877181012, 335.66930506790897 7.517993072678202 C339.86928388435814 3.255036268175391, 344.97384345184366 0.8704059918600547, 350.8044821333796 0.9902058098572759 C356.6351208149156 1.1100056278544972, 366.71891465041904 7.158197541161019, 370.6531371571246 8.236791980661529 C374.58735966383017 9.31538642016204, 374.8502254583939 7.534142936962392, 374.4098171736129 7.461772446860341" stroke="none" stroke-width="0" fill="rgb(229, 231, 235)" />
		<path d="M375.17042084622454 9.790417557571654 C378.8417171963423 14.111413220581358, 380.4419071960713 20.508994585132342, 380.1280835160978 26.905960473680434 C379.8142598361242 33.302926362228526, 376.8901620375149 43.1716381180987, 373.28747876638323 48.172212888860216 C369.68479549525154 53.17278765962173, 363.7980996087392 55.70718458917811, 358.5119838893075 56.90940909824954 C353.22586816987575 58.11163360732097, 346.82933572659994 58.127798360459174, 341.57078444979277 55.3855599432888 C336.3122331729856 52.64332152611842, 329.34133633257636 46.38475668754109, 326.9606762284646 40.45597859522727 C324.5800161243528 34.52720050291345, 325.08266743126586 26.17557091454629, 327.2868238251222 19.81289138940587 C329.49098021897856 13.450211864265448, 335.1334609277056 5.7390693867417255, 340.1856145916026 2.2799014443847376 C345.2377682554996 -1.1792664979722502, 351.0824691396986 -6.7563249177490405, 357.59974580850417 -0.9421162647360575 C364.1170224773097 4.872092388276926, 378.5287970646407 27.71898159684703, 379.289274604436 37.16515336246263 C380.0497521442313 46.611325128078235, 362.16266416990453 55.797327491434, 362.16261104727596 55.734914328957544" stroke="rgb(229, 231, 235)" stroke-width="1" fill="none" />
	</g>
	<g>
		<path d="M425.7865046353135 0.4824368836182238 C431.7448299596868 1.8529117278032043, 439.0872703806865 7.9279729351576265, 443.2857279025507 12.825218648283293 C447.48418542441493 17.72246436140896, 451.5604160307774 23.830560037546956, 450.97724976649863 29.865911162372225 C450.39408350221987 35.9012622871975, 444.55742434645634 44.51555941000307, 439.7867303168782 49.03732539723491 C435.0160362873001 53.55909138446675, 429.1142677291362 56.55178769834411, 422.35308558902994 56.99650708576324 C415.5919034489237 57.441226473182375, 405.12293212260676 55.313980282851105, 399.2196374762408 51.70564172174973 C393.3163428298748 48.09730316064835, 388.3312648313544 41.35251492449935, 386.9333177108343 35.34647571915497 C385.53537059031413 29.340436513810584, 388.193516147791 21.46715534900874, 390.83195475311993 15.669406489683427 C393.47039335844886 9.871657630358115, 393.96587087075653 1.439844308645791, 402.76394934280785 0.5599825632030928 C411.56202781485916 -0.3198791822396053, 435.60111330667524 5.200171526609161, 443.6204255854277 10.390236017027238 C451.6397378641802 15.580300507445315, 450.9602815035246 31.078030889363987, 450.8798230153226 31.700369505711556" stroke="none" stroke-width="0" fill="rgb(229, 231, 235)" />
		<path d="M406.88844072548903 -0.2296531731356488 C412.98495572440413 -2.736435529861598, 423.9542104913396 -1.4776901046246569, 430.3517154253878 0.5552769474687977 C436.749220359436 2.5882439995622524, 442.2475701676934 6.577992679647397, 445.273470329778 11.968149139425078 C448.29937049186253 17.358305599202758, 449.5304055080794 26.569521365826493, 448.5071163978952 32.89621570613488 C447.48382728771094 39.22291004644327, 444.2718054967304 45.98043447329793, 439.1337356686727 49.92831518127541 C433.99566584061506 53.876195889252884, 424.1138316798748 56.1636641206796, 417.6786974295492 56.583499953999734 C411.24356317922354 57.00333578731987, 405.79077388199846 56.33940035094868, 400.52293016671894 52.44733018119621 C395.2550864514394 48.555260011443735, 387.6021168564311 39.70365241328521, 386.0716351378722 33.2310789354849 C384.5411534193133 26.758505457684596, 386.027679220285 19.33435887667348, 391.34003985536543 13.611889314394363 C396.65240049044587 7.889419752115244, 411.38099828419524 0.9519788923546115, 417.9457989483549 -1.1037384381898114 C424.5105996125145 -3.1594557687342344, 430.56497707196985 0.4244875447725184, 430.7288438403234 1.277585331127824" stroke="rgb(229, 231, 235)" stroke-width="1" fill="none" />
	</g>
	<g>
		<path d="M453.0498293012157 1.0607360685877527 L512.3355850384808 -1.6563669379748198 L513.6607679926012 59.57480924481398 L455.6770486344398 53.822667869654026" stroke="none" stroke-width="0" fill="rgb(229, 231, 235)" />
		<path d="M453.0383842705798 -0.47231665300548187 C469.20133786852455 7.2064085388607, 483.484736300423 12.34236393320025, 511.81767638067583 -0.24736123213864758 M509.87287423880304 1.4676493675983675 C518.1901552955337 16.441805970450602, 518.4236209326881 28.691618146812452, 513.3285849453639 60.26168731671015 M510.78706669753643 59.304461751400815 C488.2774075171753 61.97127045660684, 473.7029811874501 67.08317299367503, 453.17474299881616 53.48395717474788 M456.75138827184134 59.15610676567685 C448.18194846706 44.07813678027118, 446.1421553358687 30.20317913288024, 451.391156161224 0.0680564577205569" stroke="rgb(229, 231, 235)" stroke-width="1" fill="none" />
	</g>
	<g>
		<path d="M520.2357021521676 -2.6669376839308363 L578.8019476702242 -1.8647443378909898 L578.3219197678969 56.763044917774266 L523.3662702799758 56.05244726872919" stroke="none" stroke-width="0" fill="rgb(229, 231, 235)" />
		<path d="M521.5954618289011 -0.6173028725018792 C541.4958383669144 -5.63842712242351, 552.449215036198 -7.689742529735852, 579.6621612694181 2.165603364628671 M519.3013243535273 -0.20816309611154882 C535.7885538101362 0.9720249219546826, 553.7550125199444 0.4805058273938281, 575.4079776166719 -0.9363049658271398 M573.2618029945254 -0.8106103835480241 C571.4136107130238 13.406500112086563, 571.3390272261694 20.223042719419915, 576.8449297993345 56.37027379767504 M575.418184499335 0.29609760708168587 C571.3437904591285 16.940720863711984, 572.0497041544996 31.821965374234402, 577.2211073595396 57.950784330255416 M573.168698244325 55.17184823550775 C565.9455821689097 60.87877613818721, 552.3141464362573 59.24156779537838, 520.5001829759384 57.75860617788864 M578.210808714746 55.03371121069604 C555.9164418436574 59.405522245556114, 534.5352288419274 59.35426596795943, 518.9857699591619 55.55275356195391 M520.561331266475 53.018750695659385 C509.860289074959 39.21947067326814, 505.10367945479425 17.069587706278845, 520.9121171844496 -1.0875535512723449 M521.7240559868136 57.347985416396384 C515.1504976956497 42.69369444777585, 516.099225808352 26.23466473790582, 520.2916397169562 0.18081177753621613" stroke="rgb(229, 231, 235)" stroke-width="1" fill="none" />
	</g>
	<g>
		<path d="M583.7347547730075 0.22028193215706615 L640.8370223428226 3.2114145570654458 L638.4251772819603 58.42113425631386 L582.8698450148726 58.60060515097988" stroke="none" stroke-width="0" fill="rgb(229, 231, 235)" />
		<path d="M588.2493299467351 -3.4722892838919837 C604.7788659216208 9.171571693784927, 625.6151641046534 6.366350860789048, 639.0765895447868 1.7587536644238604 M585.2416145165339 0.4938509251458889 C599.2482586530471 3.018626501215415, 617.216327298106 1.1327895284885336, 642.738207968896 -1.3927061149547368 M642.2248902015773 0.7388070212726845 C647.878769071199 20.882143483541476, 649.5234485913923 45.09437780206658, 642.2682187672494 56.59522001060087 M640.765170935856 -1.1215150970237966 C647.6299430193253 20.22828925302794, 646.2424021123735 41.05516800037536, 640.8674075365744 56.12994986307747 M640.9070509055524 55.465282631557116 C630.105144406664 48.53736549145094, 618.4708150602048 43.79448263047814, 582.0562790993406 53.432988315866496 M640.7329336255476 56.64657812086973 C623.278756552218 66.16779975855326, 606.3124390213698 65.26063051038119, 586.4977761331858 56.35675845422251 M581.3619406363522 53.09993916196284 C586.7740591959636 44.974434198521294, 581.7400208063648 30.02507236428431, 588.1074821945056 -1.3645790245567841 M584.4227579642582 57.82678133009218 C594.6468083435644 39.474304024540075, 595.1285535554233 22.908013880861507, 583.5375052117698 0.13133374908873652" stroke="rgb(229, 231, 235)" stroke-width="1" fill="none" />
	</g>
	<g>
		<path d="M-2.275191517184913 65.52230238423087 L60.1154177345853 68.2747074209245 L53.52002535713734 121.78922701323326 L-2.68480084854688 118.17505861331665" stroke="none" stroke-width="0" fill="rgb(229, 231, 235)" />
		<path d="M-2.263030212305601 67.59669261840966 C14.506831751760018 66.78567925989228, 31.43236607892971 70.6782762847346, 54.36936648477011 61.11274706538109 M55.82970939512444 61.09032643150103 C53.04252211153132 82.64279840870577, 57.14297487813036 108.7963980143106, 60.23642976817106 122.93118631403507 M58.491668689850634 120.14982230497436 C45.84796918070852 137.547624136188, 37.36133865453183 130.02939261292852, 1.5334676356768089 120.3329314918964 M-1.6489326417100862 122.06881519172188 C-8.98153990151506 100.96864037730148, -9.47862684088224 82.01378157261217, 3.2969124992093874 61.78629043799636" stroke="rgb(229, 231, 235)" stroke-width="1" fill="none" />
	</g>
	<g>
		<path d="M83.93643029231137 68.45412859720949 C89.46309864125746 66.29595415594996, 99.05707291550148 68.83057295638928, 104.59696249417347 70.72019106240333 C110.13685207284546 72.60980916841739, 113.93572605205787 75.57737674853757, 117.1757677643433 79.79183723329379 C120.41580947662874 84.00629771805, 124.88576721324715 90.71721172470862, 124.03721276788605 96.0069539709406 C123.18865832252494 101.29669621717258, 117.20752680824934 107.60628831283061, 112.08444109217672 111.53029071068563 C106.9613553761041 115.45429310854065, 99.39604489742108 119.32901378000318, 93.29869847145034 119.55096835807073 C87.2013520454796 119.77292293613829, 80.3579610377888 116.48147367050315, 75.5003625363523 112.86201817909091 C70.6427640349158 109.24256268767867, 65.14899550976816 102.88620648404961, 64.15310746283133 97.83423540959733 C63.1572194158945 92.78226433514504, 66.14627536829593 87.1515161276117, 69.52503425473132 82.5501917323772 C72.90379314116672 77.9488673371427, 80.86877927187146 72.41044924850607, 84.42566078144367 70.22628903819037 C87.98254229101587 68.04212882787468, 90.20746684584778 69.09017843878682, 90.86632331216457 69.44523047048304" stroke="none" stroke-width="0" fill="rgb(229, 231, 235)" />
		<path d="M81.40362524397457 70.82609492234354 C86.65170728082263 67.76711337177241, 95.75941885360106 66.71884647929942, 101.52014000614541 67.76239443505787 C107.28086115868976 68.80594239081633, 112.36094692602141 72.43897548066772, 115.96795215924067 77.08738265689426 C119.57495739245992 81.7357898331208, 123.48067239842142 89.9212238702112, 123.16217140546094 95.65283749241709 C122.84367041250046 101.38445111462299, 118.34447969522154 107.89400914752572, 114.05694620147781 111.47706439012967 C109.76941270773409 115.06011963273362, 103.65352790522715 116.72234003550435, 97.43697044299863 117.1511689480408 C91.2204129807701 117.57999786057727, 81.81160777035679 116.53043405884935, 76.75760142810665 114.0500378653484 C71.70359508585652 111.56964167184745, 68.49974494373073 107.4768873334598, 67.1129323894978 102.26879178703514 C65.72611983526487 97.06069624061048, 65.2455479039022 88.36143580472594, 68.43672610270909 82.80146458680048 C71.62790430151597 77.24149336887501, 82.3530712171896 71.35942520856611, 86.2600015823391 68.90896447948235 C90.1669319474886 66.45850375039859, 92.06285543507163 67.98732067803024, 91.8783082936061 68.0987002122979" stroke="rgb(229, 231, 235)" stroke-width="1" fill="none" />
	</g>
	<g>
		<path d="M143.91281001132762 69.0711405655183 C148.24032158865825 66.62818019531241, 157.5177557874479 68.22272442687522, 163.2032134966203 69.66702705386884 C168.8886712057927 71.11132968086245, 174.23821213042675 73.6992957194319, 178.02555626636206 77.73695632748003 C181.81290040229737 81.77461693552816, 185.48033005109423 88.69539806293288, 185.92727831223226 93.89299070215759 C186.3742265733703 99.0905833413823, 184.46827322560085 104.65505102666832, 180.7072458331903 108.9225121628283 C176.94621844077977 113.18997329898828, 169.1025966724523 118.22320240304657, 163.361113957769 119.4977575191175 C157.61963124308568 120.77231263518843, 150.9211163089959 119.13239427052228, 146.2583495450904 116.56984285925384 C141.5955827811849 114.0072914479854, 137.6478326450196 109.65273033277953, 135.38451337433608 104.12244905150686 C133.12119410365256 98.5921677702342, 127.23796222461506 89.55820986722642, 132.67843392098928 83.38815517161788 C138.1189056173635 77.21810047600934, 159.8708898120187 67.211392568397, 168.0273435525814 67.10212087785564 C176.18379729314412 66.99284918731428, 181.9537300019036 81.96767398484288, 181.61715636436554 82.73252502836975" stroke="none" stroke-width="0" fill="rgb(229, 231, 235)" />
		<path d="M178.64904784710262 75.15547233451969 C182.4873702156793 78.90200290292114, 182.65050281862875 86.39098749021349, 183.24759769728513 91.77542874342335 C183.8446925759415 97.1598699966332, 185.23528673748686 102.68682529315969, 182.2316171190409 107.46211985377883 C179.22794750059492 112.23741441439797, 171.2361638427366 118.84821595176783, 165.22557998660926 120.42719610713822 C159.21499613048192 122.0061762625086, 151.52002464118797 119.36078814572411, 146.16811398227688 116.93600078600117 C140.81620332336578 114.51121342627823, 135.40127389660518 110.70853438451039, 133.11411603314264 105.87847194880057 C130.8269581696801 101.04840951309075, 130.54458806501418 93.74750881302069, 132.4451668015017 87.95562617174224 C134.34574553798922 82.16374353046379, 139.8656376579917 74.56253208580526, 144.51758845206777 71.12717610112992 C149.16953924614384 67.69182011645458, 153.87588928794443 63.76320378934636, 160.35687156595813 67.3434902636902 C166.83785384397183 70.92377673803404, 181.02212460302434 85.27656270860929, 183.40348212014993 92.60889494719294 C185.78483963727552 99.94122718577658, 174.82152555109045 110.83027654918209, 174.64501666871172 111.33748369519209" stroke="rgb(229, 231, 235)" stroke-width="1" fill="none" />
	</g>
	<g>
		<path d="M212.33593643138028 65.0420178121491 C218.12369064959097 62.19952659634216, 227.3370368149434 61.26393548562494, 233.14147183881866 63.2261841548849 C238.94590686269393 65.18843282414485, 243.87208794755793 71.37408446309414, 247.16254657463196 76.81550982770882 C250.453005201706 82.25693519232351, 253.8127875275992 89.50524332945488, 252.88422360126276 95.87473634257303 C251.95565967492632 102.24422935569117, 246.0650403631585 110.16565471209265, 241.59116301661325 115.03246790641768 C237.11728567006801 119.89928110074271, 231.67733644113207 124.40532231433534, 226.04095952199137 125.07561550852324 C220.40458260285067 125.74590870271115, 212.85888419882073 122.84956337994235, 207.772901501769 119.05422707154513 C202.6869188047173 115.2588907631479, 196.97723045820373 109.00038043989218, 195.52506333968105 102.3035976581399 C194.07289622115837 95.60681487638763, 194.12103847660453 85.81554959238507, 199.05989879063299 78.87353038103151 C203.99875910466145 71.93151116967796, 218.80116600842626 62.57847431746421, 225.15822522385182 60.65148239001857 C231.51528443927737 58.72449046257293, 237.2041933078265 66.567419528675, 237.20225408318632 67.31157881635765 M224.77310261236684 64.55739430208821 C230.0671147350222 64.33975357873062, 237.00890378368697 65.09710667656552, 241.67973325361925 69.32497571975995 C246.35056272355152 73.55284476295438, 251.79812794633034 82.86497147830107, 252.7980794319605 89.9246085612548 C253.79803091759067 96.98424564420853, 251.62735386424953 105.93261605489157, 247.6794421674003 111.68279821748229 C243.7315304705511 117.432980380073, 234.88379061767228 122.29796078826296, 229.11060925086514 124.42570153679908 C223.337427884058 126.55344228533521, 218.67879485910515 127.72631513104513, 213.04035396655746 124.44924270869907 C207.40191307400977 121.17217028635302, 198.4103222520478 111.40311967748941, 195.2799638955789 104.76326700272276 C192.14960553911 98.1234143279561, 192.723375454456 90.18278907439489, 194.2582038277441 84.6101266600991 C195.7930322010322 79.0374642458033, 199.37092915309444 74.74383222152301, 204.48893413530752 71.327292516948 C209.6069391175206 67.910752812373, 221.2992568993031 65.85859136215697, 224.96623372102266 64.11088843264908 C228.63321054274223 62.36318550314119, 226.9952131577984 60.80084053729742, 226.490795065625 60.84107493990068" stroke="none" stroke-width="0" fill="rgb(229, 231, 235)" />
		<path d="M225.23221527451167 62.40275695825113 C230.9040540571288 62.61280818820177, 239.57666974396642 67.44917677189451, 243.75083089621668 72.21318095508975 C247.92499204846695 76.977185138285, 250.02690861242908 84.2254983580841, 250.27718218801326 90.98678205742257 C250.52745576359743 97.74806575676105, 248.24287664475264 107.44438738453435, 245.25247234972176 112.78088315112063 C242.26206805469087 118.11737891770692, 238.22422415458374 121.6783615033965, 232.33475641782786 123.00575665694026 C226.445288681072 124.33315181048403, 215.41421686103303 123.87450408789238, 209.9156659291866 120.74525407238323 C204.41711499734015 117.61600405687409, 201.46612081985262 110.23633845473543, 199.34345082674915 104.23025656388542 C197.22078083364568 98.2241746730354, 195.68917148683528 90.58597269205632, 197.1796459705658 84.70876272728314 C198.6701204542963 78.83155276250997, 199.4448413731272 68.96499281388095, 208.2862977291323 68.96699677524637 C217.12775408513738 68.96900073661179, 245.3273671145839 76.65088955588593, 250.22838410659634 84.72078649547568 C255.12940109860878 92.79068343506543, 238.28134891639928 116.93402310604145, 237.6923996812069 117.38637841278492 M222.44295278741615 60.025953595369586 C228.3105278048577 59.54013153042737, 236.0240244900108 66.2376180659282, 240.58830819103693 70.79535322886501 C245.15259189206307 75.35308839180182, 248.4167009351389 80.94236924285698, 249.82865499357294 87.37236457299046 C251.240609052007 93.80235990312394, 251.86847326910805 103.23100009748192, 249.06003254164125 109.3753252096659 C246.25159181417445 115.51965032184988, 239.07449784514915 121.76530518817141, 232.97801062877215 124.23831524609433 C226.88152341239515 126.71132530401725, 217.71200056539533 127.1843239679838, 212.48110924337928 124.2133855572034 C207.25021792136323 121.24244714642299, 204.57331847414298 112.22462305809009, 201.59266269667583 106.41268478141188 C198.61200691920868 100.60074650473368, 194.4430913980587 95.23150777905299, 194.59717457857639 89.3417558971342 C194.75125775909407 83.45200401521542, 198.1258367012091 75.47154129569456, 202.517161779782 71.0741734898992 C206.90848685835488 66.67680568410383, 217.06996309547608 64.70369794129738, 220.9451250500138 62.95754906236196 C224.8202870045515 61.21140018342655, 224.87597169958264 60.091141282418434, 225.76813350700823 60.597280216286705" stroke="rgb(229, 231, 235)" stroke-width="1" fill="none" />
	</g>
	<g>
		<path d="M271.7978949068789 76.21060011857973 C275.51816878331044 71.78293336582517, 280.1804149922571 66.3385872410125, 285.7315666353056 65.77579247733402 C291.28271827835414 65.21299771365554, 300.5149453246371 69.43024070229902, 305.10480476517006 72.83383153650885 C309.694664205703 76.23742237071869, 312.2116213700263 81.03261363391849, 313.27072327850334 86.19733748259308 C314.3298251869804 91.36206133126768, 314.0078333031768 98.56868699734852, 311.45941621603214 103.82217462855643 C308.91099912888745 109.07566225976433, 303.25392161131674 115.29310402561072, 297.98022075563523 117.71826326984055 C292.7065198999537 120.14342251407038, 285.29727092798413 120.3157485389859, 279.81721108194324 118.3731300939354 C274.33715123590235 116.4305116488849, 268.34744523148004 110.52881699557238, 265.0998616793898 106.06255259953753 C261.85227812729954 101.59628820350267, 259.0922855268727 97.5226918679348, 260.3317097694016 91.57554371772625 C261.5711340119305 85.6283955675177, 269.7265322256534 73.68017514708812, 272.53640713456326 70.37966369828621 C275.34628204347314 67.0791522494843, 276.83551521061065 71.21085726511306, 277.190959222861 71.77247502491478 M307.3780011016173 74.51856008216188 C311.5779178778214 78.4438842311011, 314.34862728244116 89.90448039904366, 314.9953853411981 96.11106752197746 C315.642143399955 102.31765464491126, 314.75130693144797 107.6723456462744, 311.2585494541589 111.75808281976467 C307.7657919768699 115.84381999325494, 299.9781324306882 119.98986388732344, 294.0388404774637 120.62549056291911 C288.09954852423914 121.26111723851479, 280.63261076177963 118.974564604981, 275.62279773481157 115.57184287333868 C270.6129847078435 112.16912114169637, 266.3203422325839 105.42715133503151, 263.9799623156553 100.20916017306517 C261.6395823987267 94.99116901109883, 259.4053129249628 89.56360141417805, 261.5805182332399 84.26389590154061 C263.755723541517 78.96419038890316, 271.74131885520677 71.31325126619072, 277.03119416531797 68.41092709724049 C282.32106947542917 65.50860292829026, 287.96773600534044 65.79406449485317, 293.3197700939071 66.84995088783927 C298.67180418247375 67.90583728082537, 306.71211539902254 73.15297084495883, 309.1433986967178 74.7462454551571 C311.574681994413 76.33952006535536, 308.6964580155928 75.71398175562135, 307.90746988007874 76.40959854902889" stroke="none" stroke-width="0" fill="rgb(229, 231, 235)" />
		<path d="M311.1228340053352 80.2221696216642 C314.35731119847844 84.32290679288876, 314.4128744853416 90.05471941804629, 313.45318191628365 95.7064321706327 C312.4934893472257 101.3581449232191, 309.5314203373 110.37986833080345, 305.3646785909876 114.13244613718267 C301.19793684467516 117.88502394356189, 294.1029412441441 118.37686646104427, 288.4527314384092 118.22189900890807 C282.8025216326743 118.06693155677186, 276.04498004532365 116.19998410093851, 271.4634197565781 113.20264142436548 C266.88185946783256 110.20529874779245, 262.0112546926813 105.27183039741688, 260.9633697059361 100.23784294946995 C259.9154847191909 95.20385550152302, 262.36230265240624 88.08788234002051, 265.17610983610706 82.99871673668389 C267.9899170198079 77.90955113334726, 272.66591997627313 72.26682518798248, 277.8462128081409 69.70284932945017 C283.0265056400086 67.13887347091787, 290.12327729574093 64.45560332672397, 296.2578668273137 67.61486158549012 C302.3924563588865 70.77411984425626, 311.5105110408865 83.7598769047301, 314.6537499975774 88.65839888204701 C317.7969889542683 93.55692085936391, 315.64225502566944 97.17735592825315, 315.1173005674591 97.00599344939158 M279.3679604180231 68.19558195902624 C284.19112733195107 66.74409956785765, 294.76806088581156 68.52980464586136, 299.9153855607122 71.07004613216829 C305.0627102356128 73.61028761847521, 307.6594716182477 78.15736338130849, 310.2519084674268 83.4370308768678 C312.8443453166059 88.7166983724271, 316.8998686718616 97.50402008571976, 315.47000665578673 102.74805110552411 C314.04014463971185 107.99208212532847, 306.6850191563397 112.13865319343394, 301.67273637097765 114.90121699569394 C296.6604535856156 117.66378079795395, 291.10098796379185 119.64810960434758, 285.39630994361437 119.32343391908412 C279.6916319234369 118.99875823382067, 271.3437299686507 116.56350789051007, 267.44466824991275 112.9531628841132 C263.5456065311748 109.34281787771633, 261.8206417332916 103.82604805643027, 262.0019396311868 97.66136388070291 C262.183237529082 91.49667970497555, 264.8271360785633 81.16688622293573, 268.5324556372839 75.96505782974906 C272.23777519600446 70.76322943656238, 282.09328674369215 67.94923063779119, 284.23385698351024 66.4503935215829 C286.3744272233283 64.9515564053746, 282.11816923892167 66.52697412341733, 281.3758770761925 66.97203513249931" stroke="rgb(229, 231, 235)" stroke-width="1" fill="none" />
	</g>
	<g>
		<path d="M355.0209708498963 61.78735057142265 C361.0324335657091 61.23199394902304, 369.58422731553696 65.09976294235439, 374.3079551842753 69.20246356622087 C379.0316830530136 73.30516419008735, 382.55950204694574 79.7126610545312, 383.36333806232614 86.40355431462152 C384.16717407770653 93.09444757471184, 382.64189903355344 103.61567671184605, 379.1309712765577 109.34782312676275 C375.620043519562 115.07996954167945, 368.00971617427484 118.91299494232035, 362.2977715203518 120.79643280412172 C356.5858268664287 122.67987066592309, 350.71939292692207 122.749481445592, 344.8593033530194 120.64845029757099 C338.99921377911676 118.54741914954998, 330.7764233520676 113.8616735105064, 327.1372340769359 108.19024591599567 C323.4980448018042 102.51881832148494, 321.5113052435666 93.03934675503544, 323.0241677022294 86.61988473050661 C324.53703016089224 80.20042270597779, 329.4215181521777 73.24583941811105, 336.2144088289127 69.67347376882275 C343.0072995056477 66.10110811953444, 357.55221438993976 64.68129890951201, 363.7815117626395 65.18569083477676 C370.0108091353393 65.69008276004152, 373.52276904993744 71.85645573853455, 373.59019306511135 72.69982532041124" stroke="none" stroke-width="0" fill="rgb(222, 82, 76)" />
		<path d="M376.86291817819733 74.3024482304079 C381.1692517365507 78.69102064239867, 383.3337894391 87.73659417637332, 383.3844856786973 93.86876571031972 C383.4351819182946 100.00093724426613, 381.20890635617917 106.34789746499376, 377.1670956157811 111.09547743408633 C373.125284875383 115.8430574031789, 365.28171177598364 121.04343568821209, 359.13362123630884 122.35424552487517 C352.98553069663404 123.66505536153825, 345.677128265258 121.73725699606932, 340.27855237773235 118.9603364540648 C334.87997649020673 116.18341591206028, 329.3653589786486 111.37465415767048, 326.74216591115504 105.69272227284803 C324.1189728436615 100.01079038802558, 322.3399321317281 90.93883746749644, 324.5393939727708 84.86874514513008 C326.73885581381353 78.79865282276371, 334.0959893784859 72.8209605949443, 339.93893695741116 69.27216833864986 C345.7818845363364 65.72337608235543, 352.185272125608 60.1194071369275, 359.59707944632237 63.575991607363456 C367.00888676703676 67.03257607779942, 381.04481022182114 82.58422810656204, 384.4097808816974 90.01167516126561 C387.7747515415736 97.43912221596919, 380.4805868737713 108.3926800610309, 379.7869034055798 108.14067393558493" stroke="rgb(222, 82, 76)" stroke-width="1" fill="none" />
	</g>
	<g>
		<path d="M391.8378786989028 65.38937707714553 L444.06071480845793 66.59407531665569 L450.84659139027315 124.24795967332476 L389.881147626006 124.98862685448856" stroke="none" stroke-width="0" fill="rgb(229, 231, 235)" />
		<path d="M391.093954455516 65.3676890749612 C408.7016829103182 57.40494837590104, 434.40268547200884 60.32625216523134, 447.11635211610536 67.09683871100181 M388.61145480354185 64.0383629437835 C406.0092126278707 62.27581715718144, 418.4776062994395 62.1953491724429, 446.66596054669895 64.88628923310861 M446.64660601219083 63.20448727589338 C449.1120697598137 78.32761955190249, 451.1869247196527 97.88116795753078, 448.72514686752066 125.4103099863447 M448.1409562760369 65.51452115939807 C435.6411490083822 82.3256588832401, 437.24480154185136 101.13400940928534, 446.1802828051883 121.88412473769179 M445.7644026771497 125.58016643573487 C425.8063741831477 115.46969116394496, 405.11271324929106 113.56273042021516, 390.25123194187165 122.67124890979333 M446.8177022684307 120.13918309717123 C429.2060774004296 120.70954138752418, 413.5845738376705 119.29843066401797, 391.80104507185774 123.50195003806796 M392.75321714327686 124.40836204273296 C402.73429894229855 106.33611288375045, 405.3937751506685 97.99583589439708, 392.2578827821177 67.62655500322907 M388.4637283601943 122.89071838416501 C383.45571327387734 107.63973061082385, 382.8781086685597 92.120424248202, 390.1198352757632 64.06202372042942" stroke="rgb(229, 231, 235)" stroke-width="1" fill="none" />
	</g>
	<g>
		<path d="M457.0931900709072 66.93635343220352 L511.62622169789114 67.18248467208602 L509.01104790540114 122.70276780404737 L457.12004705496133 120.54860498064187" stroke="none" stroke-width="0" fill="rgb(229, 231, 235)" />
		<path d="M451.3845258064173 61.046249364979275 C472.6095492332171 49.85499187613059, 483.28933040691425 57.24435842985537, 508.90021177361075 67.55040285666851 M513.970720876485 63.98957422823126 C500.9223929007517 76.45743600701148, 499.3219539237757 90.9586327987795, 511.73522348597663 124.65452021957154 M508.3014813810534 118.38917905850795 C496.9554672232904 128.17310562930646, 486.8244113441118 133.7577649452365, 458.0349180477971 121.60403105086502 M458.4555120498481 124.68085982888401 C452.9488069637574 108.60079085830382, 450.37005713091025 94.52942499883109, 456.35428383703527 67.10950183576062" stroke="rgb(229, 231, 235)" stroke-width="1" fill="none" />
	</g>
	<g>
		<path d="M523.9267855441208 64.8064242538774 L576.7499846950176 68.57350157358434 L575.2799213428607 119.33896976883307 L521.6743620325817 122.12914767690413" stroke="none" stroke-width="0" fill="rgb(229, 231, 235)" />
		<path d="M523.1053332588449 67.47331981700334 C531.7586161422745 57.99492799766485, 546.4506573869809 55.23207605626983, 577.7645716324698 62.45365977609766 M573.1239934942491 66.6216828159118 C577.8292480632872 78.95000444921956, 576.2376052635831 102.40179997423596, 580.486946515601 122.69280024334097 M578.2794544963419 121.3735703199439 C562.4087420394369 112.05807489585005, 548.085051789026 111.47731173960631, 519.2158165807281 120.71543058844759 M523.2740562901095 123.92037186996433 C513.3302513408547 106.6351879787495, 516.4703775181432 88.10491584599379, 519.6164140030323 65.81928981806712" stroke="rgb(229, 231, 235)" stroke-width="1" fill="none" />
	</g>
	<g>
		<path d="M589.7187773910368 77.15639702610677 C593.5234192542407 73.03300694450222, 601.05179270273 68.56906820997398, 607.3522007030994 67.81009600424898 C613.6526087034687 67.05112379852397, 621.8960948970046 69.67533216290408, 627.521225393253 72.60256379175676 C633.1463558895014 75.52979542060945, 638.2374529946214 80.72038564074643, 641.1029836805901 85.37348577736503 C643.9685143665588 90.02658591398364, 646.4855190353377 95.72119196087132, 644.7144095090654 100.52116461146844 C642.9432999827931 105.32113726206555, 636.1357575582376 111.34962168826124, 630.4763265229561 114.1733216809477 C624.8168954876746 116.99702167363415, 617.447761608742 118.01355986777196, 610.7578232973764 117.46336456758722 C604.0678849860108 116.91316926740248, 595.26867078391 114.9667618898506, 590.3366966547621 110.87214987983923 C585.4047225256143 106.77753786982785, 577.5669336222903 99.7971416184281, 581.1659785224894 92.89569250751894 C584.7650234226884 85.99424339660979, 603.3835864252113 72.40330177274731, 611.9309660559564 69.4634552143843 C620.4783456867016 66.52360865602128, 632.463686787081 75.00053987479093, 632.4502563069602 75.25661315734087" stroke="none" stroke-width="0" fill="rgb(229, 231, 235)" />
		<path d="M622.6636940315863 68.70860935110126 C628.2815562468611 69.67453748469246, 635.3989269518065 73.66026898341659, 638.9388825168867 78.32314680765117 C642.4788380819668 82.98602463188575, 644.7918384709271 91.24372881751202, 643.903427422067 96.68587629650878 C643.0150163732069 102.12802377550554, 638.2769667569519 107.48266837848652, 633.6084162237256 110.97603168163172 C628.9398656904993 114.46939498477693, 622.6148578034613 117.43782327022701, 615.8921242227091 117.64605611537999 C609.1693906419569 117.85428896053297, 598.967846278596 115.23926177647216, 593.2720147392124 112.22542875254956 C587.5761831998288 109.21159572862696, 582.9443371242477 104.44613769849511, 581.7171349864079 99.56305797184436 C580.4899328485682 94.67997824519361, 582.2002454540834 88.20407634532097, 585.908801912174 82.92695039264507 C589.6173583702646 77.64982443996917, 594.8646426527024 68.25799396212977, 603.9684737349518 67.90030225578897 C613.0723048172011 67.54261054944817, 633.962223203433 74.83054922330462, 640.5317884056703 80.78080015460023 C647.1013536079076 86.73105108589584, 643.771509613311 103.17491903701688, 643.3858649483759 103.60180784356268" stroke="rgb(229, 231, 235)" stroke-width="1" fill="none" />
	</g>
	<g>
		<path d="M0.8671461944591172 129.50927091708013 L58.231180476286376 128.15484292750196 L58.167116428854165 187.33359758186052 L-0.6025712368648897 183.33857719900723" stroke="none" stroke-width="0" fill="rgb(229, 231, 235)" />
		<path d="M-1.0818456004160524 132.72182749762172 C8.461547745352176 130.3925723446896, 22.323501648562228 126.97689595854966, 59.14130202733 132.83282004739854 M58.331886411116145 126.41938173813962 C61.62323217042281 140.8335084783117, 61.31169799896119 155.52122289199733, 53.189916285508794 187.55247678977526 M57.302277111105134 184.23243459023232 C39.69829184467027 196.3727530223454, 26.951160706730654 196.55650838792076, 3.516483494880138 185.99990893201291 M1.2326842977112218 188.66914498404074 C-3.7746820322561216 175.28189242590247, -2.405442045441779 157.13910776773056, 0.08419524161980085 131.28697138627228" stroke="rgb(229, 231, 235)" stroke-width="1" fill="none" />
	</g>
	<g>
		<path d="M112.7123999356843 135.37175404346118 C117.58520582200255 138.44530422386708, 121.05649517767591 147.4338835723549, 122.04418435448264 153.26488741533808 C123.03187353128936 159.09589125832127, 121.57281375618925 165.09976741921588, 118.63853499652467 170.35777710136043 C115.70425623686009 175.61578678350497, 110.30216107379775 182.47669932324092, 104.43851179649516 184.81294550820542 C98.57486251919258 187.1491916931699, 88.98816015533 186.17954377645015, 83.45663933270916 184.37525421114734 C77.92511851008832 182.57096464584453, 74.5161525283861 178.7152171055635, 71.24938686077014 173.98720811638862 C67.98262119315419 169.25919912721372, 63.24245928912111 162.12931132861058, 63.85604532701346 156.00720027609788 C64.46963136490581 149.88508922358517, 69.84932237442915 141.31996517301621, 74.93090308812427 137.2545418013124 C80.01248380181939 133.18911842960858, 86.66191890864927 126.62437744470638, 94.3455296091842 131.61466004587493 C102.02914030971912 136.60494264704346, 121.24622923355047 158.10369901259187, 121.03256729133386 167.19623740832367 C120.81890534911726 176.28877580405546, 93.72813425711438 186.23297083891902, 93.06355795588455 186.16989042026572" stroke="none" stroke-width="0" fill="rgb(229, 231, 235)" />
		<path d="M81.35123277537741 134.0080032660719 C86.91433820191573 131.15369484039695, 95.35540466951608 130.66128551864645, 101.46663704598537 132.20848827349405 C107.57786942245465 133.75569102834166, 114.7733177840779 138.68549685120334, 118.0186270341931 143.29121979515747 C121.2639362843083 147.8969427391116, 121.3111503781027 154.25585896877922, 120.93849254667651 159.84282593721892 C120.56583471525033 165.42979290565862, 119.98871610996419 172.83847521313984, 115.78268004563603 176.8130216057956 C111.57664398130787 180.78756799845135, 101.73844686091618 182.808500058016, 95.70227616070753 183.69010429315347 C89.66610546049887 184.57170852829094, 84.13420141949118 184.8506763510955, 79.56565584438408 182.1026470166205 C74.99711026927699 179.3546176821455, 70.25586870672252 172.9700019880317, 68.29100271006492 167.20192828630337 C66.32613671340731 161.43385458457504, 62.6548891707002 153.61866196234052, 67.77645986443844 147.49420480625048 C72.89803055817667 141.36974765016043, 91.42901092249261 131.78733696498165, 99.02042687249431 130.45518534976307 C106.61184282249602 129.1230337345445, 113.18288261107435 139.07004569215053, 113.32495556444866 139.501295114939" stroke="rgb(229, 231, 235)" stroke-width="1" fill="none" />
	</g>
	<g>
		<path d="M139.19852640819587 133.60257168231982 C143.6478334188879 129.6729880552308, 151.88531259596317 129.69017772261392, 158.44694094331498 129.62860814260512 C165.0085692906668 129.5670385625963, 173.30233168622334 129.6763051726138, 178.56829649230667 133.233154202267 C183.83426129839 136.7900032319202, 188.9471364930762 143.99717713812183, 190.04272977981506 150.96970232052422 C191.13832306655394 157.9422275029266, 188.63721970011437 168.88885602147758, 185.14185621274 175.06830529668142 C181.64649272536565 181.24775457188525, 175.44951482763406 185.8922681163085, 169.07054885556894 188.04639797174727 C162.69158288350383 190.20052782718605, 152.92671513215836 190.32907513847906, 146.86806038034933 187.99308442931417 C140.8094056285403 185.65709372014928, 135.70539254033068 179.79921425228594, 132.7186203447148 174.03045371675793 C129.7318481490989 168.26169318122993, 125.13018620106561 160.86003066119173, 128.94742720665405 153.38052121614618 C132.7646682122425 145.90101177110063, 148.20009582065052 132.31177791284063, 155.62206637824545 129.15339704648466 C163.04403693584038 125.9950161801287, 173.27582809181365 133.8540906373907, 173.47925055222362 134.43023601801042" stroke="none" stroke-width="0" fill="rgb(229, 231, 235)" />
		<path d="M132.5073033217858 142.3725623708109 C136.0027878041967 137.19258749762164, 143.38653604415845 128.83310897286697, 150.06630673373408 127.21096624316542 C156.7460774233097 125.58882351346385, 166.7668980485236 129.67356296018733, 172.5859274592395 132.63970599260153 C178.40495686995544 135.60584902501574, 182.1508822252695 139.55064501802602, 184.98048319802965 145.00782443765064 C187.8100841707898 150.46500385727526, 190.93813961558126 158.60588523468402, 189.56353329580045 165.38278251034922 C188.18892697601964 172.1596797860144, 182.2170904094088 182.05975627582853, 176.73284527934484 185.66920809164188 C171.2486001492809 189.27865990745522, 163.31810078897223 187.9463870258323, 156.65806251541673 187.03949340522922 C149.99802424186123 186.13259978462614, 141.37152305976616 184.64572110402204, 136.7726156380119 180.22784636802336 C132.17370821625764 175.80997163202468, 128.5526675360319 167.99329069921112, 129.06461798489107 160.53224498923709 C129.57656843375025 153.07119927926306, 136.41799543663996 140.19067445952157, 139.84431833116693 135.46157210817927 C143.2706412256939 130.73246975683696, 149.49673222497645 131.92391269479992, 149.62255535205296 132.1576308811832" stroke="rgb(229, 231, 235)" stroke-width="1" fill="none" />
	</g>
	<g>
		<path d="M215.08014179729503 135.83888138143527 C220.12300080620625 133.21977062696533, 226.85977052849262 130.3743386236312, 232.0296058118994 131.73778351873148 C237.19944109530616 133.10122841383176, 243.15536645140534 138.94974561342403, 246.09915349773564 144.01955075203693 C249.04294054406594 149.08935589064984, 250.24891326989214 156.11522669498402, 249.6923280898812 162.15661435040892 C249.13574290987023 168.1980020058338, 246.76450279101252 176.15893294569543, 242.75964241766988 180.26787668458638 C238.75478204432724 184.37682042347734, 231.47347424120846 186.861060948057, 225.6631658498254 186.81027678375466 C219.85285745844232 186.75949261945232, 212.71771012577187 183.60010060887856, 207.89779206937152 179.96317169877233 C203.07787401297117 176.3262427886661, 197.96771744410918 170.3783516537239, 196.74365751142327 164.98870332311728 C195.51959757873735 159.59905499251064, 194.52089765627244 152.85423430712072, 200.553432473256 147.62528171513247 C206.58596729023958 142.39632912314423, 225.5448704709767 134.0215278874256, 232.93886641332477 133.61498777118786 C240.33286235567286 133.2084476549501, 244.86979575971827 144.7931673290724, 244.91740812734454 145.18604101770603" stroke="none" stroke-width="0" fill="rgb(229, 231, 235)" />
		<path d="M212.5031567977623 133.96844396392387 C217.59589352114003 131.0872318121472, 223.52773694420281 129.71574189822243, 229.38822692925714 131.0232122256979 C235.24871691431147 132.33068255317338, 243.80384656384498 137.3007616241602, 247.66609670808833 141.81326592877676 C251.52834685233168 146.3257702333933, 252.93985663101185 152.5957294307567, 252.56172779471729 158.09823805339715 C252.18359895842272 163.6007466760376, 249.43181760589198 170.55973769949753, 245.397323690321 174.82831766461953 C241.36282977475003 179.09689762974153, 234.25695472865476 182.55943870912512, 228.3547643012915 183.70971784412916 C222.45257387392826 184.8599969791332, 215.52662029560798 184.70643665451792, 209.98418112614144 181.72999247464378 C204.4417419566749 178.75354829476964, 197.4133609154901 171.67869184653682, 195.10012928449214 165.8510527648844 C192.78689765349418 160.02341368323198, 191.5926505315673 152.16316759144482, 196.10479134015358 146.76415798472934 C200.61693214873986 141.36514837801386, 216.3525460094337 135.57037444588926, 222.17297413600977 133.45699512459146 C227.99340226258585 131.34361580329366, 231.23847819704676 133.5717967548187, 231.02736009960995 134.0838820569426" stroke="rgb(229, 231, 235)" stroke-width="1" fill="none" />
	</g>
	<g>
		<path d="M258.70320913546766 127.86754923234096 L315.166229397345 133.1027322927637 L316.39932994124376 184.51193118070842 L260.52040843668436 187.37354866861818" stroke="none" stroke-width="0" fill="rgb(229, 231, 235)" />
		<path d="M259.0588154679554 133.07117394664493 C279.4515291946157 123.56672161822303, 292.71390429831666 118.95627940069124, 319.47611607793755 128.980474059464 M320.8499599030917 126.58420923935057 C311.0174871058678 149.5819237803255, 310.36899393620763 176.79254209895936, 315.0713468514694 189.7879528545312 M316.8129569573237 184.84730979767073 C293.7379478812516 199.1466047848652, 274.461615687873 195.6749291087184, 257.34934003904027 190.95666785936143 M256.82489475212896 186.81788938461028 C257.92771033738677 166.70019853108812, 258.99007995753556 151.00130692022844, 258.4680810346708 127.01700476573505" stroke="rgb(229, 231, 235)" stroke-width="1" fill="none" />
	</g>
	<g>
		<path d="M379.38407813491597 142.07061751598707 C383.44893946745555 146.57537608571062, 385.3883986909444 154.25533082213008, 384.6827765700724 159.93064029405727 C383.9771544492004 165.60594976598446, 380.07569470075737 172.0790553669136, 375.15034540968384 176.1224743475502 C370.2249961186103 180.1658933281868, 361.51002885254417 183.46919116188207, 355.1306808236311 184.19115417787685 C348.75133279471805 184.91311719387164, 341.8126134881227 183.31591203909568, 336.8742572362056 180.4542524435189 C331.93590098428854 177.59259284794211, 327.3276806744299 172.78440556934524, 325.5005433121286 167.02119660441625 C323.6734059498273 161.25798763948725, 323.1929403569745 151.5962267526377, 325.9114330623979 145.87499865394497 C328.62992576782136 140.15377055525224, 336.23632915641133 135.2605546826527, 341.8114995446693 132.69382801225981 C347.38666993292725 130.12710134186693, 352.03647174235954 126.755460212144, 359.3624553919456 130.4746386315877 C366.6884390415317 134.19381705103143, 381.7618673471816 148.85702109448897, 385.76740144218564 155.00889852892206 C389.7729355371897 161.16077596335515, 383.8633469778475 167.29519956687244, 383.39565996196995 167.38590323818622" stroke="none" stroke-width="0" fill="rgb(229, 231, 235)" />
		<path d="M380.35109602878987 142.59827657921142 C383.63128079108145 147.1827005001608, 383.35357699076167 156.82379271256957, 382.71035364632223 162.92138028525017 C382.0671303018828 169.01896785793076, 380.7440816197164 175.3491182339412, 376.49175596215315 179.183802015295 C372.2394303045899 183.01848579664878, 363.92220473604067 185.63685348488198, 357.1963997009429 185.92948297337296 C350.4705946658451 186.22211246186393, 342.10414290964667 184.27304436025267, 336.1369257515664 180.93957894624086 C330.1697085934862 177.60611353222905, 322.8192489356967 171.5063823518273, 321.3930967524614 165.92869048930203 C319.96694456922614 160.35099862677674, 324.2485965862664 153.12349750482784, 327.5800126521547 147.4734277710891 C330.91142871804306 141.82335803735035, 335.8123762274534 134.8824817877761, 341.38159314779153 132.0282720868695 C346.95081006812967 129.17406238596288, 353.67155539331816 125.7796370798452, 360.99531417418365 130.34816956564947 C368.31907295504914 134.91670205145374, 382.8455006382952 151.48035718586576, 385.3241458329845 159.43946700169514 C387.80279102767383 167.3985768175245, 376.7733946771811 177.72377095558602, 375.8671853423195 178.10282846062572" stroke="rgb(229, 231, 235)" stroke-width="1" fill="none" />
	</g>
	<g>
		<path d="M386.5438752052247 128.3243363077531 L450.4981915539625 127.0638375565685 L450.44367994288206 190.92802352287146 L390.1975684978905 185.965339798539" stroke="none" stroke-width="0" fill="rgb(229, 231, 235)" />
		<path d="M387.37534846944646 129.6699531681718 C409.78004673234346 129.11677954458233, 424.9979946118029 129.42556429906065, 449.63673101591445 132.2954288412015 M388.62085051982217 129.9476764831189 C407.81153841461156 117.28989882338797, 427.34344734705957 117.87698467972794, 446.8362715438721 128.85499392768497 M445.01620337438055 133.8875072845388 C443.4152430477422 146.14767809703656, 443.9911164379305 171.05409797429724, 444.18985400512474 189.5841399586304 M445.70032716815615 129.92511364830509 C434.1409103267565 146.5808316946818, 436.19070597425684 162.5169462960596, 447.13681549462075 186.68278651687044 M450.9952931902755 184.50130385718202 C432.4012352974009 200.4014449771308, 414.2632570026706 196.7692599195365, 392.31160133309015 183.69869037294654 M447.3598028011105 186.70334049549106 C432.1039662537882 176.1384274296326, 419.5435025860144 178.4771493260759, 389.615435468138 186.40120068543195 M389.64598769223954 187.75667186003398 C390.6921790413218 167.57008077317374, 391.9669538992226 151.42893088474204, 389.42891253794994 127.26777422719042 M389.16940629252286 185.51499854764901 C386.3929527363614 170.98523163589624, 387.7312436306847 157.53463774714342, 389.7882826332711 128.49492514899498" stroke="rgb(229, 231, 235)" stroke-width="1" fill="none" />
	</g>
	<g>
		<path d="M474.5895909731968 132.33298564449314 C479.6077979641031 130.0523639984325, 489.0260533653594 130.6541453906154, 494.3835992547407 132.58491983680926 C499.741145144122 134.5156942830031, 503.8081819198153 138.67957580858607, 506.7348663094847 143.9176323216562 C509.6615506991541 149.15568883472636, 512.9348461742686 157.75527841523558, 511.9437055927569 164.01325891523015 C510.95256501124516 170.27123941522473, 505.9378369018852 177.91296457448325, 500.78802282041414 181.4655153216237 C495.6382087389431 185.01806606876417, 486.9068052333843 185.4475376390035, 481.0448211039305 185.3285633980729 C475.18283697447663 185.2095891571423, 469.92378273441136 184.7730061114723, 465.6161180436912 180.75166987603998 C461.308453352971 176.73033364060765, 456.04782556536105 167.80474503335, 455.19883295960955 161.20054598547893 C454.34984035385804 154.59634693760785, 456.0265026690354 146.151567457346, 460.52216240918216 141.1264755888136 C465.01782214932894 136.1013837202812, 477.6808057116508 132.70161195223045, 482.1727914004904 131.0499947742846 C486.66477708932996 129.39837759633878, 487.2042395070701 130.64923865720186, 487.4740765422195 131.21677252113858" stroke="none" stroke-width="0" fill="rgb(229, 231, 235)" />
		<path d="M461.6982893567705 143.3726517361623 C464.5784906635703 138.31010102740805, 470.17710682999757 131.16030332404958, 476.115874304951 129.12821454937858 C482.0546417799044 127.09612577470759, 492.12236306909733 128.54929185587844, 497.3308942064911 131.18011908813634 C502.5394253438849 133.81094632039424, 505.17620370759994 139.34816756808334, 507.36706112931375 144.91317794292596 C509.55791855102757 150.47818831776857, 511.7309269600233 158.3818260269386, 510.4760387367739 164.570181337192 C509.2211505135245 170.7585366474454, 505.07989803037106 178.51799217938816, 499.8377317898175 182.04330980444638 C494.59556554926394 185.5686274295046, 485.26718213629744 186.23223151480224, 479.02304129345254 185.72208708754127 C472.77890045060764 185.2119426602803, 466.17406524120526 183.34399393356526, 462.3728867327481 178.9824432408805 C458.57170822429094 174.62089254819577, 455.631295698251 166.38885585007966, 456.2159702427096 159.55278293143283 C456.8006447871682 152.716710012786, 463.34395088025644 142.21222013745202, 465.88093399949975 137.96600572899945 C468.41791711874305 133.71979132054688, 471.1487246036537 133.77729651817063, 471.4378689581694 134.0754964807174" stroke="rgb(229, 231, 235)" stroke-width="1" fill="none" />
	</g>
	<g>
		<path d="M520.3797205444663 126.50389240463662 L575.020974027267 132.4852186411582 L578.0598823382744 188.01283150173992 L516.3023405379985 187.4208775933709" stroke="none" stroke-width="0" fill="rgb(229, 231, 235)" />
		<path d="M520.2870592698471 130.38641406480178 C530.1170209507073 125.71352495348195, 544.489753376063 128.14483317290373, 580.0250204024937 131.89599325398635 M575.9703122697108 126.76199369190338 C576.1093404209485 153.65431167499065, 572.8142408281009 171.1290407288679, 578.2137551842038 188.89428159146584 M577.2653103160612 186.90275394293525 C563.3416699022195 199.49403757505442, 545.1306127718398 194.80328338500567, 517.3409855271375 185.66478951815358 M519.0390869470689 190.40275430443225 C530.8471674166124 176.91136283842266, 527.2365050672778 162.59015313215306, 521.5927126017953 133.22859347145925" stroke="rgb(229, 231, 235)" stroke-width="1" fill="none" />
	</g>
	<g>
		<path d="M588.0506563426925 127.52073364877415 L639.4255485410301 126.9849045375824 L643.3450396419864 189.77038233040938 L586.6871316668208 190.48203326096547" stroke="none" stroke-width="0" fill="rgb(229, 231, 235)" />
		<path d="M587.490749360341 128.57867974146066 C601.0755133870827 134.5910865423779, 618.9949146448332 138.09233478107637, 642.3373865343124 132.13411980383012 M644.7575915004552 132.7584663314834 C627.9112638420232 150.50518961754207, 629.935486754583 164.92742773702886, 643.8853105521615 189.9532783714653 M639.2441446356618 190.56514440181374 C629.0476567740673 175.05793886504347, 616.5845114378077 178.7194892784434, 583.4144496299821 183.95646433039016 M586.4984479814675 188.12058125010168 C580.3012505573755 177.5785682829616, 582.2271544349301 165.91719840217363, 588.7710509719163 126.97678105684426" stroke="rgb(229, 231, 235)" stroke-width="1" fill="none" />
	</g>
</svg>